<svg xmlns="http://www.w3.org/2000/svg" version="1.1" xmlns:xlink="http://www.w3.org/1999/xlink" xmlns:svgjs="http://svgjs.com/svgjs" width="512" height="512" x="0" y="0" viewBox="0 0 64 64" style="enable-background:new 0 0 512 512" xml:space="preserve" class=""><g><g xmlns="http://www.w3.org/2000/svg" id="koala"><path d="M21.5,34a1.5,1.5,0,0,0,0,3A1.5,1.5,0,0,0,21.5,34Z" fill="#ffffff" data-original="#000000" class=""></path><path d="M42.5,34a1.5,1.5,0,0,0,0,3A1.5,1.5,0,0,0,42.5,34Z" fill="#ffffff" data-original="#000000" class=""></path><path d="M62,25c0-14.49-18.64-20.55-27.15-8.78a18,18,0,0,0-5.7,0C20.66,4.47,2,10.49,2,25a15,15,0,0,0,8.06,13.28C9.45,47.71,16,54,23,54H41c7.11,0,13.55-6.22,12.94-15.72A15,15,0,0,0,62,25ZM4,25C4,12.86,19.2,7.41,27,16.64,18.2,18.85,11.65,26.7,10.28,36.12A13,13,0,0,1,4,25ZM32,48a4,4,0,0,1-4-4V41a4,4,0,0,1,8,0v3A4,4,0,0,1,32,48Zm20-7.13C51.53,46.94,47,52,41,52H33V49.91A6,6,0,0,0,38,44V41a6,6,0,0,0-12,0v3a6,6,0,0,0,5,5.91V52H23c-6,0-11-5.46-11-12.09,0-19.26,21.41-29.33,34.11-15.52A22.92,22.92,0,0,1,52,40.87Zm1.76-4.75c-1.4-9.57-8-17.29-16.67-19.48C44.8,7.41,60,12.85,60,25A13,13,0,0,1,53.72,36.12Z" fill="#ffffff" data-original="#000000" class=""></path></g></g></svg>
